<svg width="61" height="61" viewBox="0 0 61 61" fill="none" xmlns="http://www.w3.org/2000/svg">
<circle cx="30.5" cy="30.5" r="30.5" fill="#0F161B"/>
<path d="M42.9996 21.466C42.9996 20.6231 42.291 19.9561 41.4481 20.0025C36.4346 20.281 33.7324 21.8985 32.3373 23.2374C32.0514 23.5134 31.8901 23.8946 31.8901 24.2904V39.8074C31.8901 40.4133 32.584 40.7578 33.0678 40.3913C34.6266 39.2015 37.2628 37.9847 41.6094 37.7697C42.3887 37.7306 42.9995 37.0856 42.9995 36.3063V21.466H42.9996Z" fill="white"/>
<path d="M20.3878 37.7697C24.7343 37.9847 27.3705 39.199 28.9293 40.3913C29.4106 40.7603 30.107 40.4157 30.107 39.8074V24.2904C30.107 23.8921 29.9457 23.511 29.6598 23.2373C28.2648 21.8985 25.5625 20.281 20.5515 20.0025C19.7085 19.9537 19 20.6207 19 21.466V36.3087C19 37.0856 19.6108 37.7331 20.3878 37.7697Z" fill="#FF664F"/>
</svg>
