<svg width="61" height="61" viewBox="0 0 61 61" fill="none" xmlns="http://www.w3.org/2000/svg">
<circle cx="30.5" cy="30.5" r="30.5" fill="#0F161B"/>
<g clip-path="url(#clip0_4_251)">
<path d="M25 28.4268H19.8586C19.3866 28.4268 19.005 28.8083 19 29.2853V42.1389C19 42.6159 19.3866 42.9975 19.8586 42.9975H25C25.477 42.9975 25.8586 42.6109 25.8586 42.1389V29.2853C25.8586 28.8083 25.472 28.4268 25 28.4268Z" fill="#FF664F"/>
<path d="M33.5708 19.0026H28.4294C27.9574 19.0026 27.5708 19.3842 27.5708 19.8561V42.139C27.5708 42.616 27.9574 42.9975 28.4294 42.9975H33.5708C34.0478 42.9975 34.4294 42.6109 34.4294 42.139V19.8611C34.4294 19.3842 34.0428 19.0026 33.5708 19.0026Z" fill="white"/>
<path d="M42.141 25.8561H36.9996C36.5226 25.8561 36.141 26.2377 36.141 26.7147V42.1389C36.141 42.6159 36.5276 42.9975 36.9996 42.9975H42.141C42.618 42.9975 42.9996 42.6109 42.9996 42.1389V26.7147C42.9996 26.2377 42.613 25.8561 42.141 25.8561Z" fill="#FF664F"/>
</g>
<defs>
<clipPath id="clip0_4_251">
<rect width="24" height="24" fill="white" transform="translate(19 19)"/>
</clipPath>
</defs>
</svg>
