<svg width="61" height="61" viewBox="0 0 61 61" fill="none" xmlns="http://www.w3.org/2000/svg">
<circle cx="30.5" cy="30.5" r="30.5" fill="#0F161B"/>
<path d="M42.3401 30.9642H34.0223C33.6588 30.9642 33.3624 31.2606 33.3624 31.624C33.3624 31.8091 33.4411 31.9759 33.5638 32.0962L39.4208 37.9532C39.5411 38.0828 39.7149 38.1639 39.9047 38.1639C40.1339 38.1639 40.3352 38.0481 40.4533 37.8722C41.8933 36.2007 42.8193 34.0779 42.9861 31.742C42.9953 31.7027 42.9999 31.6633 42.9999 31.6239C43 31.2606 42.7059 30.9642 42.3401 30.9642Z" fill="white" fill-opacity="0.4"/>
<path d="M31.5104 19.0071C31.1469 19.0093 30.8529 19.3034 30.8529 19.6668V28.9107C30.8529 29.2765 31.1469 29.5729 31.5104 29.5729H40.7566C41.1202 29.5729 41.4164 29.2765 41.4164 28.9107C41.0899 23.5909 36.8326 19.3336 31.5104 19.0071Z" fill="white"/>
<path d="M36.5919 37.4139L29.7719 30.5938C29.6562 30.4758 29.5868 30.3114 29.5868 30.1331L29.5843 20.5002C29.5843 20.1368 29.2904 19.8428 28.9268 19.8428C23.387 20.1808 19 24.783 19 30.4063C19 36.2518 23.739 40.993 29.5843 40.993C32.2512 40.993 34.6866 40.0068 36.5479 38.3792C36.6915 38.2588 36.7818 38.0783 36.7818 37.8769C36.7818 37.6986 36.7099 37.5342 36.5919 37.4139Z" fill="#FF664F"/>
</svg>
