<svg width="61" height="61" viewBox="0 0 61 61" fill="none" xmlns="http://www.w3.org/2000/svg">
<path d="M61 30.5C61 47.3447 47.3447 61 30.5 61C13.6553 61 0 47.3447 0 30.5C0 13.6553 13.6553 0 30.5 0C47.3447 0 61 13.6553 61 30.5Z" fill="#0F161B"/>
<g clip-path="url(#clip0_4_241)">
<path d="M42.2969 24.7188H37.375V19.7031C37.375 19.3145 37.0605 19 36.6719 19H19.7031C19.3145 19 19 19.3145 19 19.7031V36.6719C19 37.0605 19.3145 37.375 19.7031 37.375H24.7188V42.2969C24.7188 42.6855 25.0332 43 25.4219 43H42.2969C42.6855 43 43 42.6855 43 42.2969V25.4219C43 25.0332 42.6855 24.7188 42.2969 24.7188ZM35.9688 35.9688H26.125V26.125H35.9688V35.9688Z" fill="white"/>
<path d="M37.375 24.7188H42.2969C42.6855 24.7188 43 25.0332 43 25.4219V42.2969C43 42.6855 42.6855 43 42.2969 43H25.4219C25.0332 43 24.7188 42.6855 24.7188 42.2969V37.375L26.125 35.9688H35.9688V26.125L37.375 24.7188Z" fill="#FF664F"/>
</g>
<defs>
<clipPath id="clip0_4_241">
<rect width="24" height="24" fill="white" transform="translate(19 19)"/>
</clipPath>
</defs>
</svg>
