<svg width="18" height="18" viewBox="0 0 18 18" fill="none" xmlns="http://www.w3.org/2000/svg">
<circle cx="9" cy="9" r="9" fill="#F6F1EC"/>
<g clip-path="url(#clip0_4_210)">
<path d="M11.9179 11.8137C12.4675 11.2641 12.826 10.5958 12.9937 9.89135C13.0417 9.68955 12.7937 9.55332 12.6474 9.70035C12.6456 9.70216 12.6438 9.70396 12.642 9.70575C11.4191 10.9286 9.42177 10.9051 8.22876 9.63503C7.10401 8.43767 7.11877 6.57878 8.26094 5.39803C8.27534 5.38314 8.28985 5.36843 8.30448 5.3539C8.45119 5.20814 8.31407 4.96127 8.11287 5.00909C7.41466 5.17502 6.75194 5.52845 6.205 6.06956C4.60582 7.65173 4.59681 10.2169 6.18533 11.8097C7.7669 13.3956 10.3346 13.397 11.9179 11.8137Z" fill="#2A2B33"/>
</g>
<defs>
<clipPath id="clip0_4_210">
<rect width="8" height="8" fill="white" transform="translate(5 5)"/>
</clipPath>
</defs>
</svg>
